<svg width="727" height="788" viewBox="0 0 727 788" fill="none" xmlns="http://www.w3.org/2000/svg">
<g clip-path="url(#clip0_103_44)">
<path d="M688.956 734.282C688.956 763.948 534.73 788 344.478 788C154.226 788 7.62939e-06 763.948 7.62939e-06 734.282C7.62939e-06 713.28 77.3075 695.085 189.974 686.259C236.434 682.608 288.928 680.563 344.478 680.563C367.313 680.563 389.627 680.91 411.207 681.569C569.522 686.421 688.956 708.173 688.956 734.282Z" fill="#3F3D56"/>
<path opacity="0.1" d="M300.029 745.256C373.06 745.256 432.264 737.757 432.264 728.506C432.264 719.254 373.06 711.755 300.029 711.755C226.998 711.755 167.794 719.254 167.794 728.506C167.794 737.757 226.998 745.256 300.029 745.256Z" fill="black"/>
<path d="M299.473 740.635C368.516 740.635 424.486 678.57 424.486 602.007C424.486 525.445 368.516 463.38 299.473 463.38C230.431 463.38 174.461 525.445 174.461 602.007C174.461 678.57 230.431 740.635 299.473 740.635Z" fill="#3F3D56"/>
<path d="M338.922 684.029H261.136V757.964H338.922V684.029Z" fill="white"/>
<path d="M440.598 701.936L436.153 727.351L465.045 731.972L483.936 720.42L482.825 701.936H440.598Z" fill="#575A89"/>
<path d="M295.029 224.824C295.029 224.824 292.806 251.394 287.25 252.55C281.694 253.705 299.474 299.914 299.474 299.914H326.143L347.256 294.138L337.255 268.723C337.255 268.723 323.92 250.239 333.921 235.221C343.922 220.203 295.029 224.824 295.029 224.824Z" fill="#A0616A"/>
<path opacity="0.1" d="M295.029 224.824C295.029 224.824 292.806 251.394 287.25 252.55C281.694 253.705 299.474 299.914 299.474 299.914H326.143L347.256 294.138L337.255 268.723C337.255 268.723 323.92 250.239 333.921 235.221C343.922 220.203 295.029 224.824 295.029 224.824Z" fill="black"/>
<path d="M239.468 428.145C239.468 428.145 210.576 485.907 233.912 497.459C257.247 509.011 262.803 507.856 262.803 511.322C262.803 514.787 258.358 513.632 260.581 519.408C262.803 525.185 256.136 548.289 262.803 562.152C269.471 576.015 267.248 586.412 267.248 586.412C267.248 586.412 267.248 587.567 269.471 592.188C271.693 596.809 272.804 600.275 271.693 602.585C270.582 604.896 263.914 619.914 270.582 623.379C277.249 626.845 311.697 629.156 315.031 623.379C318.364 617.603 311.697 614.137 315.031 610.672C318.364 607.206 320.587 606.051 318.364 603.74C316.142 601.43 313.919 572.549 313.919 572.549C313.919 572.549 319.475 539.047 317.253 534.426C315.031 529.805 311.697 525.185 313.919 521.719C316.142 518.253 318.364 519.408 319.475 514.787C320.587 510.167 322.809 499.769 322.809 499.769L335.032 498.614L363.924 504.39C363.924 504.39 396.15 541.358 431.709 552.91C431.709 552.91 441.71 563.307 445.043 563.307C448.377 563.307 448.377 563.307 447.266 565.618C446.154 567.928 442.821 567.928 445.043 570.239C447.266 572.549 450.599 569.083 448.377 572.549C446.154 576.015 443.932 576.015 446.154 578.325C448.377 580.636 445.043 593.343 445.043 594.499C445.043 595.654 435.042 704.246 438.376 706.556C441.71 708.867 488.381 715.798 491.714 706.556C495.048 697.314 489.492 685.762 489.492 685.762C489.492 685.762 506.16 547.134 501.715 537.892C497.27 528.65 481.713 487.062 398.372 460.492C398.372 460.492 375.036 455.871 375.036 452.405C375.036 448.939 372.814 426.99 368.369 425.835C363.924 424.679 338.366 423.524 338.366 423.524L306.141 433.921L261.692 425.835L239.468 428.145Z" fill="#2F2E41"/>
<path d="M278.36 622.224L272.804 643.018C272.804 643.018 268.359 676.52 273.915 684.607C278.28 690.958 286.072 698.736 300.523 700.101C304.573 700.487 308.629 699.425 312.019 697.089C315.409 694.754 317.931 691.285 319.168 687.257C319.333 686.775 319.437 686.272 319.475 685.762C319.475 683.451 316.142 655.726 316.142 655.726L310.586 626.845L309.475 618.758L278.36 622.224Z" fill="#2F2E41"/>
<path d="M440.598 721.574C440.598 721.574 435.042 715.798 433.931 721.574C432.82 727.35 428.375 751.61 436.153 752.765C443.932 753.921 518.384 765.473 526.162 760.852C533.941 756.231 548.386 749.3 539.497 745.834C530.607 742.368 505.049 731.971 505.049 731.971C505.049 731.971 490.603 712.332 488.381 711.177C486.158 710.022 473.935 712.332 468.379 716.953C462.823 721.574 440.598 721.574 440.598 721.574Z" fill="#2F2E41"/>
<path d="M321.698 249.084C340.723 249.084 356.146 233.05 356.146 213.272C356.146 193.493 340.723 177.459 321.698 177.459C302.673 177.459 287.25 193.493 287.25 213.272C287.25 233.05 302.673 249.084 321.698 249.084Z" fill="#A0616A"/>
<path d="M318.364 294.138L305.03 279.12L290.249 249.084C290.249 249.084 279.472 245.618 277.249 251.394C275.027 257.17 235.023 275.654 235.023 275.654C235.023 275.654 245.024 372.694 240.579 381.936C236.134 391.178 228.355 428.145 235.023 431.611C241.69 435.076 272.804 431.611 282.805 436.232C292.806 440.853 321.698 440.853 329.476 435.076C337.255 429.3 339.477 424.679 347.256 428.145C353.878 431.095 369.359 330.226 373.816 300.167C374.191 297.642 373.88 295.059 372.916 292.709C371.952 290.359 370.374 288.337 368.362 286.871C358.391 279.6 340.434 267.07 337.255 268.723C332.81 271.033 318.364 294.138 318.364 294.138Z" fill="#575A89"/>
<path d="M366.147 289.517C368.756 290.195 371.103 291.687 372.873 293.793C374.643 295.898 375.751 298.516 376.048 301.295L385.037 385.401C385.037 385.401 362.813 435.076 351.701 401.575C340.589 368.073 366.147 289.517 366.147 289.517Z" fill="#575A89"/>
<path d="M363.924 393.488L388.371 386.557C388.371 386.557 392.816 418.903 397.261 418.903C401.706 418.903 381.704 437.387 371.703 435.076C361.702 432.766 347.256 424.679 346.145 418.903C345.033 413.127 356.146 388.867 356.146 388.867L363.924 393.488Z" fill="#575A89"/>
<path d="M295.693 228.721C298.036 223.351 297.629 217.088 299.566 211.546C300.603 208.579 302.285 205.901 304.483 203.722C306.68 201.543 309.332 199.921 312.232 198.984C315.131 198.046 318.2 197.819 321.199 198.318C324.197 198.818 327.044 200.032 329.516 201.865C332.008 203.711 334.505 206.305 337.546 205.953C340.82 205.573 343.741 201.776 346.751 203.167C350.088 204.71 349.187 210.927 352.567 212.363C354.347 213.119 356.449 211.955 357.476 210.265C358.373 208.49 358.862 206.522 358.904 204.517C359.371 199.589 359.792 194.375 357.737 189.909C356.872 188.395 356.119 186.816 355.483 185.184C355.124 183.66 354.979 182.09 355.055 180.523C355.036 174.732 354.629 168.691 351.826 163.687C348.715 158.133 342.964 154.582 336.965 153.033C330.966 151.483 324.681 151.721 318.521 152.263C308.339 153.159 297.72 155.08 289.698 161.661C288.607 162.489 287.669 163.514 286.927 164.687C286.223 166.081 285.725 167.577 285.451 169.125C283.717 176.468 281.116 183.559 277.709 190.239C276.07 193.071 274.73 196.079 273.713 199.21C272.863 202.392 272.92 206.018 274.701 208.753C276.151 210.98 278.469 212.167 280.29 213.987C282.094 215.791 282.938 219.26 284.937 220.626C286.682 221.818 288.773 220.976 290.552 222.24C292.837 223.863 293.002 227.421 295.693 228.721Z" fill="#2F2E41"/>
<path d="M323.92 311.466L327.254 304.535C327.254 304.535 376.148 319.553 386.149 333.416C386.149 333.416 410.595 317.243 423.93 319.553L437.265 321.864L396.15 359.986L343.922 355.365L323.92 311.466Z" fill="#F2F2F2"/>
<path d="M321.698 304.535L276.138 370.383L341.7 403.885C341.7 403.885 347.829 407.351 352.543 403.885L396.15 383.091L437.265 321.864L396.15 343.813C396.15 343.813 391.705 334.571 382.815 339.192L321.698 304.535Z" fill="#6C63FF"/>
<path d="M391.705 421.214L400.594 396.954C400.594 396.954 420.596 370.383 409.484 357.676C398.372 344.968 386.149 394.643 386.149 394.643L391.705 421.214Z" fill="#A0616A"/>
<path d="M289.137 417.342L308.534 400.993C308.534 400.993 338.659 388.442 335.18 371.653C331.7 354.865 297.153 391.46 297.153 391.46L289.137 417.342Z" fill="#A0616A"/>
<path opacity="0.1" d="M241.134 300.492H240.023C240.023 300.492 222.799 279.12 219.466 308.001C216.132 336.882 205.02 432.766 233.912 436.232C262.803 439.697 283.361 421.791 283.361 421.791C283.361 421.791 304.474 388.289 296.695 388.289C292.932 388.289 282.696 386.532 273.36 387.134C263.4 387.776 254.451 390.693 255.025 387.712C256.136 381.936 272.249 308.578 241.134 300.492Z" fill="black"/>
<path d="M239.468 277.965L235.023 275.654C235.023 275.654 217.243 279.12 213.91 308.001C210.576 336.882 199.464 432.766 228.355 436.232C257.247 439.697 296.14 431.611 296.14 431.611C296.14 431.611 303.918 387.712 296.14 387.712C288.361 387.712 248.357 393.488 249.469 387.712C250.58 381.936 270.582 286.051 239.468 277.965Z" fill="#575A89"/>
<path d="M375.592 407.929L387.845 388.404L395.594 420.636L375.592 429.878V407.929Z" fill="#575A89"/>
<path d="M123.871 129.517C140.441 129.517 153.874 115.552 153.874 98.3259C153.874 81.0995 140.441 67.1346 123.871 67.1346C107.301 67.1346 93.8681 81.0995 93.8681 98.3259C93.8681 115.552 107.301 129.517 123.871 129.517Z" fill="#F2F2F2"/>
<path d="M159.43 330.528H88.312V404.463H159.43V330.528Z" fill="#F2F2F2"/>
<path d="M413.373 0L431.374 32.4124L449.374 64.8247H413.373H377.373L395.373 32.4124L413.373 0Z" fill="#F2F2F2"/>
<path d="M727 194.344C726.57 208.172 723.33 219.256 717.282 227.595C711.233 235.936 704.047 240.106 695.723 240.107C688.943 240.107 683.001 236.026 677.896 227.863C672.79 219.701 670.237 207.145 670.238 190.196C670.238 186.449 670.324 182.881 670.495 179.491C670.666 176.102 670.881 172.89 671.139 169.856L675.644 125.833H645.911C640.763 181.498 636.537 214.616 633.233 225.187C629.929 235.758 624.33 241.043 616.436 241.044C612.873 240.953 609.473 239.472 606.911 236.896C605.426 235.527 604.252 233.833 603.472 231.936C602.693 230.038 602.329 227.984 602.406 225.923C602.406 221.821 605.517 216.09 611.738 208.728C617.959 201.369 621.413 194.656 622.099 188.59L629.822 125.833H617.337C613.818 125.855 610.354 126.749 607.233 128.442C604.361 129.813 601.862 131.906 599.961 134.53L594.426 143.094H589.921C594.125 129.536 599.295 119.344 605.431 112.519C611.565 105.694 618.623 102.282 626.604 102.282H724.941V125.833H691.733C690.703 136.538 689.909 147.242 689.352 157.947C688.793 168.652 688.514 179.401 688.515 190.196C688.515 197.511 690.146 203.444 693.406 207.992C696.666 212.542 700.742 214.817 705.634 214.817C708.637 214.817 711.79 213.545 715.094 211.003C716.663 209.859 717.976 208.376 718.942 206.655C719.909 204.934 720.506 203.017 720.693 201.034C720.951 199.073 721.144 197.534 721.272 196.418C721.401 195.303 721.465 194.612 721.466 194.344L727 194.344Z" fill="#6C63FF"/>
<path opacity="0.1" d="M727 194.344C726.57 208.172 723.33 219.256 717.282 227.595C711.233 235.936 704.047 240.106 695.723 240.107C688.943 240.107 683.001 236.026 677.896 227.863C672.79 219.701 670.237 207.145 670.238 190.196C670.238 186.449 670.324 182.881 670.495 179.491C670.666 176.102 670.881 172.89 671.139 169.856L675.644 125.833H645.911C640.763 181.498 636.537 214.616 633.233 225.187C629.929 235.758 624.33 241.043 616.436 241.044C612.873 240.953 609.473 239.472 606.911 236.896C605.426 235.527 604.252 233.833 603.472 231.936C602.693 230.038 602.329 227.984 602.406 225.923C602.406 221.821 605.517 216.09 611.738 208.728C617.959 201.369 621.413 194.656 622.099 188.59L629.822 125.833H617.337C613.818 125.855 610.354 126.749 607.233 128.442C604.361 129.813 601.862 131.906 599.961 134.53L594.426 143.094H589.921C594.125 129.536 599.295 119.344 605.431 112.519C611.565 105.694 618.623 102.282 626.604 102.282H724.941V125.833H691.733C690.703 136.538 689.909 147.242 689.352 157.947C688.793 168.652 688.514 179.401 688.515 190.196C688.515 197.511 690.146 203.444 693.406 207.992C696.666 212.542 700.742 214.817 705.634 214.817C708.637 214.817 711.79 213.545 715.094 211.003C716.663 209.859 717.976 208.376 718.942 206.655C719.909 204.934 720.506 203.017 720.693 201.034C720.951 199.073 721.144 197.534 721.272 196.418C721.401 195.303 721.465 194.612 721.466 194.344L727 194.344Z" fill="black"/>
<path d="M727 190.163C726.57 203.991 723.33 215.075 717.282 223.415C711.233 231.755 704.047 235.925 695.723 235.926C688.943 235.926 683.001 231.845 677.896 223.682C672.79 215.52 670.237 202.964 670.238 186.015C670.238 182.268 670.324 178.7 670.495 175.31C670.666 171.921 670.881 168.709 671.139 165.676L675.644 121.652H645.911C640.763 177.317 636.537 210.435 633.233 221.006C629.929 231.577 624.33 236.863 616.436 236.863C612.873 236.772 609.473 235.291 606.911 232.715C605.426 231.347 604.252 229.652 603.472 227.755C602.693 225.857 602.329 223.804 602.406 221.742C602.406 217.64 605.517 211.909 611.738 204.548C617.959 197.188 621.413 190.475 622.099 184.409L629.822 121.652H617.337C613.818 121.674 610.354 122.568 607.233 124.261C604.361 125.633 601.862 127.725 599.961 130.35L594.426 138.913H589.921C594.125 125.355 599.295 115.163 605.431 108.338C611.565 101.513 618.623 98.1013 626.604 98.1013H724.941V121.652H691.733C690.703 132.357 689.909 143.062 689.352 153.766C688.793 164.471 688.514 175.221 688.515 186.015C688.515 193.331 690.146 199.263 693.406 203.812C696.666 208.361 700.742 210.636 705.634 210.636C708.637 210.636 711.79 209.365 715.094 206.822C716.663 205.678 717.976 204.195 718.942 202.474C719.909 200.754 720.506 198.836 720.693 196.854C720.951 194.892 721.144 193.353 721.272 192.237C721.401 191.123 721.465 190.431 721.466 190.163H727Z" fill="white"/>
</g>
<defs>
<clipPath id="clip0_103_44">
<rect width="727" height="788" fill="white"/>
</clipPath>
</defs>
</svg>
